<svg width="262" height="262" viewBox="0 0 262 262" fill="none" xmlns="http://www.w3.org/2000/svg">
<path d="M130.895 256.592C129.643 256.589 128.409 256.295 127.29 255.733L124.146 254.098C100.042 241.753 42.4021 208.678 26.9965 168.707C5.9107 113.561 19.1155 40.0965 21.5469 32.1526L22.0499 30.4129C22.6233 28.462 23.9305 26.8092 25.6969 25.8017L27.2689 24.9005C30.7483 22.8045 63.2782 5.40765 130.895 5.40765C171.558 5.40765 207.944 12.052 233.39 24.1249L233.956 24.3765C234.332 24.5212 234.697 24.6964 235.045 24.9005L236.617 25.8017C238.378 26.8158 239.683 28.466 240.264 30.4129L240.788 32.2155C240.788 32.5089 240.935 32.8233 240.998 33.1168V33.7665C244.54 52.6305 254.538 117.984 234.71 168.288C219.325 208.657 161.644 241.753 137.54 254.098L134.396 255.733C133.309 256.282 132.112 256.576 130.895 256.592Z" fill="#FFDB6F"/>
<path d="M36.177 38.0424C33.3054 50.4717 23.3704 115.762 41.5427 163.257C55.2086 198.889 112.807 230.791 130.769 240.076C148.816 230.791 206.33 198.827 220.08 162.817C237.98 117.481 229.344 57.5142 225.823 38.1891C211.927 31.7334 181.639 21.4211 130.79 21.4211C72.5216 21.2744 42.444 34.8355 36.177 38.0424Z" fill="#FFA34E"/>
<mask id="mask0_1240_86" style="mask-type:luminance" maskUnits="userSpaceOnUse" x="30" y="21" width="202" height="220">
<path d="M36.177 38.3568C33.3054 50.786 23.3704 116.076 41.5427 163.593C55.2086 199.225 112.807 231.126 130.769 240.411C148.816 231.126 206.33 199.12 220.08 163.153C237.98 117.816 229.344 57.8705 225.823 38.5454C211.927 32.0897 181.639 21.7774 130.79 21.7774C72.5216 21.5888 42.444 35.1708 36.177 38.3568Z" fill="white"/>
</mask>
<g mask="url(#mask0_1240_86)">
<path d="M95.1794 137.644C95.1794 137.644 78.4114 162.042 57.6819 166.863C36.9525 171.683 26.4515 166.59 26.4515 166.59L47.6631 207.693L72.8151 194.383L88.6399 176.378L95.1794 137.644Z" fill="#CBD6EB"/>
<path d="M105.513 172.396C105.513 172.396 101.866 201.488 97.7994 219.828C93.7332 238.168 92.0145 238.944 92.0145 238.944L65.8773 223.203L47.6631 204.339C47.6631 204.339 58.3736 204.339 71.8719 190.568C80.1057 182.122 86.7135 172.232 91.3647 161.392L105.513 172.396Z" fill="#8D98C6"/>
<path d="M131 264.306V163.236L101.845 177.594C101.845 177.594 102.557 186.397 96.8142 207.211C91.0712 228.024 84.4269 235.045 84.4269 235.045L131 264.306Z" fill="#CBD6EB"/>
<path d="M166.821 137.644C166.821 137.644 183.589 162.042 204.318 166.863C225.048 171.683 235.549 166.59 235.549 166.59L214.337 207.693L189.185 194.383L173.36 176.378L166.821 137.644Z" fill="#8D98C6"/>
<path d="M156.487 172.396C156.487 172.396 160.134 201.488 164.201 219.828C168.267 238.168 169.986 238.944 169.986 238.944L196.123 223.203L214.337 204.339C214.337 204.339 203.626 204.339 190.128 190.568C181.894 182.122 175.287 172.232 170.635 161.392L156.487 172.396Z" fill="#CBD6EB"/>
<path d="M131 264.306V163.236L160.155 177.594C160.155 177.594 159.443 186.397 165.186 207.211C170.929 228.024 177.573 235.045 177.573 235.045L131 264.306Z" fill="#8D98C6"/>
<g style="mix-blend-mode:multiply" opacity="0.4">
<path d="M176.525 148.816L183.044 186.837C183.339 188.551 183.149 190.313 182.494 191.924C181.839 193.535 180.746 194.93 179.338 195.951C177.931 196.972 176.265 197.579 174.531 197.702C172.796 197.825 171.062 197.459 169.524 196.647L135.381 178.684C134.042 177.983 132.553 177.616 131.042 177.616C129.531 177.616 128.042 177.983 126.703 178.684L92.5594 196.626C91.0234 197.441 89.2893 197.809 87.5546 197.687C85.8199 197.564 84.1544 196.958 82.7476 195.935C81.3409 194.913 80.2495 193.516 79.5977 191.904C78.946 190.292 78.7601 188.529 79.0611 186.816L85.5797 148.816C86.0827 145.777 176.064 145.777 176.525 148.816Z" fill="black"/>
</g>
<path d="M138.965 44.8544L155.251 77.8664C155.893 79.1585 156.838 80.2758 158.006 81.1227C159.174 81.9696 160.53 82.5208 161.958 82.7291L198.365 88.032C200.003 88.2707 201.541 88.962 202.807 90.0279C204.073 91.0937 205.016 92.4919 205.531 94.0649C206.045 95.6379 206.11 97.3232 205.718 98.931C205.326 100.539 204.492 102.005 203.312 103.165L176.944 128.862C175.912 129.866 175.139 131.106 174.694 132.476C174.248 133.845 174.143 135.303 174.387 136.722L180.675 173.004C180.965 174.65 180.784 176.345 180.154 177.893C179.523 179.442 178.469 180.781 177.112 181.757C175.755 182.734 174.15 183.307 172.482 183.412C170.813 183.518 169.149 183.15 167.68 182.352L135.129 165.249C133.857 164.577 132.439 164.226 131 164.226C129.561 164.226 128.144 164.577 126.871 165.249L94.3201 182.352C92.8524 183.123 91.1984 183.467 89.5451 183.347C87.8918 183.227 86.305 182.647 84.9641 181.672C83.6232 180.698 82.5816 179.367 81.957 177.832C81.3324 176.296 81.1498 174.617 81.4297 172.983L87.7177 136.701C87.9618 135.282 87.8566 133.824 87.4111 132.455C86.9655 131.085 86.1931 129.845 85.1605 128.841L58.6881 103.165C57.5076 102.005 56.6745 100.539 56.2826 98.931C55.8906 97.3232 55.9553 95.6379 56.4695 94.0649C56.9836 92.4919 57.9268 91.0937 59.1927 90.0279C60.4586 88.962 61.997 88.2707 63.6346 88.032L100.042 82.7501C101.47 82.5417 102.826 81.9905 103.994 81.1437C105.162 80.2968 106.107 79.1795 106.749 77.8873L123.035 44.8544C123.77 43.3698 124.905 42.1201 126.313 41.2463C127.72 40.3726 129.344 39.9096 131 39.9096C132.657 39.9096 134.28 40.3726 135.688 41.2463C137.095 42.1201 138.23 43.3698 138.965 44.8544Z" fill="white"/>
<path d="M155.251 77.8664C155.893 79.1585 156.838 80.2758 158.006 81.1227C159.174 81.9696 160.53 82.5208 161.958 82.7291L198.365 88.032C200.003 88.2707 201.541 88.962 202.807 90.0279C204.073 91.0937 205.016 92.4919 205.531 94.0649C206.045 95.6379 206.109 97.3232 205.718 98.931C205.326 100.539 204.492 102.005 203.312 103.165L176.944 128.862C175.912 129.866 175.139 131.106 174.694 132.476C174.248 133.845 174.143 135.303 174.387 136.722L180.675 173.004C180.965 174.65 180.784 176.345 180.154 177.893C179.523 179.442 178.469 180.781 177.112 181.757C175.755 182.734 174.15 183.307 172.482 183.412C170.813 183.518 169.149 183.15 167.68 182.352L135.129 165.249C133.856 164.577 132.439 164.226 131 164.226C129.561 164.226 128.144 164.577 126.871 165.249L94.32 182.352C92.8523 183.123 91.1983 183.467 89.545 183.347C87.8917 183.227 86.3049 182.647 84.964 181.672C83.6231 180.698 82.5815 179.367 81.957 177.832C81.3324 176.296 81.1497 174.617 81.4296 172.983L84.0706 157.577C94.9572 159.363 106.126 158.087 116.33 153.894C126.534 149.701 135.372 142.754 141.857 133.83C165.731 102.432 155.251 77.8664 155.251 77.8664Z" fill="#EEF6FD"/>
</g>
</svg>
