<svg width="149" height="48" viewBox="0 0 149 48" fill="none" xmlns="http://www.w3.org/2000/svg">
<path d="M46.0508 36.44C45.8493 35.9125 46.2822 35.4026 46.73 35.64C46.8271 35.6927 46.9017 35.7806 46.9465 35.8949C47.1555 36.4224 46.7151 36.9323 46.2673 36.6949C46.1703 36.6422 46.0956 36.5542 46.0508 36.44Z" fill="#D4EAFF" fill-opacity="0.14"/>
<path d="M76.0508 44.6626C75.8493 44.1351 76.2822 43.6252 76.73 43.8626C76.8271 43.9154 76.9017 44.0033 76.9465 44.1176C77.1555 44.645 76.7151 45.1549 76.2673 44.9176C76.1703 44.8648 76.0956 44.7769 76.0508 44.6626Z" fill="#D4EAFF" fill-opacity="0.14"/>
<path d="M76.0508 10.5962C75.8493 10.0687 76.2822 9.55884 76.73 9.79621C76.8271 9.84895 76.9017 9.93687 76.9465 10.0512C77.1555 10.5786 76.7151 11.0885 76.2673 10.8512C76.1703 10.7984 76.0956 10.7105 76.0508 10.5962Z" fill="#D4EAFF" fill-opacity="0.14"/>
<path d="M115.051 14.1197C114.849 13.5922 115.282 13.0823 115.73 13.3196C115.827 13.3724 115.902 13.4603 115.946 13.5746C116.155 14.1021 115.715 14.612 115.267 14.3746C115.17 14.3219 115.096 14.2339 115.051 14.1197Z" fill="#D4EAFF" fill-opacity="0.14"/>
<path d="M86.5744 6.85989C86.3723 6.33241 86.8064 5.82251 87.2554 6.05988C87.3527 6.11262 87.4276 6.20054 87.4725 6.31482C87.6745 6.8423 87.2405 7.3522 86.7914 7.11484C86.6941 7.06209 86.6193 6.97417 86.5744 6.85989Z" fill="#D4EAFF" fill-opacity="0.14"/>
<path d="M136.054 39.9907C135.845 39.4633 136.285 38.9534 136.733 39.1907C136.83 39.2435 136.904 39.3314 136.949 39.4457C137.151 39.9732 136.718 40.4831 136.27 40.2457C136.173 40.1929 136.098 40.105 136.054 39.9907Z" fill="#D4EAFF" fill-opacity="0.14"/>
<path d="M56.8399 9.42595C56.6384 8.89987 57.0713 8.39134 57.5191 8.62808C57.6161 8.68068 57.6908 8.76836 57.7356 8.88234C57.9445 9.40841 57.5042 9.92572 57.0564 9.68022C56.9593 9.62761 56.8847 9.53993 56.8399 9.42595Z" fill="#D4EAFF" fill-opacity="0.14"/>
<path d="M113.481 39.3189C113.279 38.7914 113.713 38.2815 114.162 38.5189C114.259 38.5716 114.334 38.6595 114.379 38.7738C114.581 39.3013 114.147 39.8112 113.698 39.5738C113.6 39.5211 113.526 39.4332 113.481 39.3189Z" fill="#D4EAFF" fill-opacity="0.14"/>
<path d="M130.054 7.10011C129.845 6.57263 130.285 6.06275 130.733 6.30011C130.83 6.35286 130.904 6.44077 130.949 6.55505C131.151 7.08253 130.718 7.59244 130.27 7.35507C130.173 7.30232 130.098 7.2144 130.054 7.10011Z" fill="#D4EAFF" fill-opacity="0.14"/>
<path d="M30.051 9.44973C29.8489 8.92225 30.283 8.41235 30.732 8.64972C30.8293 8.70247 30.9041 8.79039 30.949 8.90468C31.1511 9.43216 30.717 9.94204 30.268 9.70468C30.1707 9.65193 30.0959 9.56402 30.051 9.44973Z" fill="#D4EAFF" fill-opacity="0.14"/>
<path d="M187.051 42.3404C186.849 41.8129 187.283 41.303 187.732 41.5403C187.829 41.5931 187.904 41.681 187.949 41.7953C188.151 42.3228 187.717 42.8327 187.268 42.5953C187.171 42.5426 187.096 42.4546 187.051 42.3404Z" fill="#D4EAFF" fill-opacity="0.14"/>
<path d="M201.051 36.4673C200.849 35.9398 201.283 35.4299 201.732 35.6673C201.829 35.72 201.904 35.808 201.949 35.9223C202.151 36.4497 201.717 36.9596 201.268 36.7223C201.171 36.6695 201.096 36.5816 201.051 36.4673Z" fill="#D4EAFF" fill-opacity="0.14"/>
<path d="M218.051 41.1665C217.849 40.6391 218.283 40.1292 218.732 40.3665C218.829 40.4193 218.904 40.5072 218.949 40.6215C219.151 41.149 218.717 41.6588 218.268 41.4215C218.171 41.3687 218.096 41.2808 218.051 41.1665Z" fill="#D4EAFF" fill-opacity="0.14"/>
<path d="M248.051 38.8169C247.849 38.2894 248.283 37.7795 248.732 38.0169C248.829 38.0697 248.904 38.1576 248.949 38.2719C249.151 38.7993 248.717 39.3092 248.268 39.0719C248.171 39.0191 248.096 38.9312 248.051 38.8169Z" fill="#D4EAFF" fill-opacity="0.14"/>
<path d="M256.051 32.9439C255.849 32.4164 256.283 31.9065 256.732 32.1439C256.829 32.1966 256.904 32.2845 256.949 32.3988C257.151 32.9263 256.717 33.4362 256.268 33.1988C256.171 33.1461 256.096 33.0582 256.051 32.9439Z" fill="#D4EAFF" fill-opacity="0.14"/>
<path d="M237.051 8.27591C236.849 7.74843 237.283 7.23853 237.732 7.47589C237.829 7.52864 237.904 7.61656 237.949 7.73085C238.151 8.25833 237.717 8.76822 237.268 8.53085C237.171 8.4781 237.096 8.39019 237.051 8.27591Z" fill="#D4EAFF" fill-opacity="0.14"/>
<path d="M259.051 11.7974C258.849 11.2699 259.283 10.76 259.732 10.9974C259.829 11.0501 259.904 11.138 259.949 11.2523C260.151 11.7798 259.717 12.2897 259.268 12.0523C259.171 11.9996 259.096 11.9117 259.051 11.7974Z" fill="#D4EAFF" fill-opacity="0.14"/>
<path d="M9.76959 38.1568C9.56806 37.6293 10.001 37.1194 10.4488 37.3568C10.5458 37.4095 10.6205 37.4974 10.6652 37.6117C10.8742 38.1392 10.4339 38.6491 9.98602 38.4117C9.88899 38.359 9.81437 38.271 9.76959 38.1568Z" fill="#D4EAFF" fill-opacity="0.14"/>
<path d="M159.77 38.1568C159.568 37.6293 160.001 37.1194 160.449 37.3568C160.546 37.4095 160.62 37.4974 160.665 37.6117C160.874 38.1392 160.434 38.6491 159.986 38.4117C159.889 38.359 159.814 38.271 159.77 38.1568Z" fill="#D4EAFF" fill-opacity="0.14"/>
<path d="M9.76959 11.1372C9.56806 10.6097 10.001 10.0999 10.4488 10.3372C10.5458 10.39 10.6205 10.4779 10.6652 10.5922C10.8742 11.1196 10.4339 11.6295 9.98602 11.3922C9.88899 11.3394 9.81437 11.2515 9.76959 11.1372Z" fill="#D4EAFF" fill-opacity="0.14"/>
<path d="M190.77 11.1372C190.568 10.6097 191.001 10.0999 191.449 10.3372C191.546 10.39 191.62 10.4779 191.665 10.5922C191.874 11.1196 191.434 11.6295 190.986 11.3922C190.889 11.3394 190.814 11.2515 190.77 11.1372Z" fill="#D4EAFF" fill-opacity="0.14"/>
<path d="M204.77 9.96339C204.568 9.43591 205.001 8.92603 205.449 9.16339C205.546 9.21614 205.62 9.30405 205.665 9.41834C205.874 9.94582 205.434 10.4557 204.986 10.2184C204.889 10.1656 204.814 10.0777 204.77 9.96339Z" fill="#D4EAFF" fill-opacity="0.14"/>
<path d="M219.77 13.4868C219.568 12.9594 220.001 12.4495 220.449 12.6868C220.546 12.7396 220.62 12.8275 220.665 12.9418C220.874 13.4693 220.434 13.9792 219.986 13.7418C219.889 13.689 219.814 13.6011 219.77 13.4868Z" fill="#D4EAFF" fill-opacity="0.14"/>
<path d="M231.77 41.6802C231.568 41.1527 232.001 40.6428 232.449 40.8802C232.546 40.9329 232.62 41.0208 232.665 41.1351C232.874 41.6626 232.434 42.1725 231.986 41.9351C231.889 41.8824 231.814 41.7945 231.77 41.6802Z" fill="#D4EAFF" fill-opacity="0.14"/>
<path d="M160.77 11.1372C160.568 10.6097 161.001 10.0999 161.449 10.3372C161.546 10.39 161.62 10.4779 161.665 10.5922C161.874 11.1196 161.434 11.6295 160.986 11.3922C160.889 11.3394 160.814 11.2515 160.77 11.1372Z" fill="#D4EAFF" fill-opacity="0.14"/>
<path d="M139.77 11.1372C139.568 10.6097 140.001 10.0999 140.449 10.3372C140.546 10.39 140.62 10.4779 140.665 10.5922C140.874 11.1196 140.434 11.6295 139.986 11.3922C139.889 11.3394 139.814 11.2515 139.77 11.1372Z" fill="#D4EAFF" fill-opacity="0.14"/>
</svg>